HIERARCHY
ROOT Hips
{
	OFFSET -10.056300 7.733760 -472.550000
	CHANNELS 6 Xposition Yposition Zposition Zrotation Yrotation Xrotation 
	JOINT Spine
	{
		OFFSET 0.000000 0.000000 0.000000
		CHANNELS 3 Zrotation Yrotation Xrotation
		JOINT Spine1
		{
			OFFSET 19.000000 0.000000 0.000000
			CHANNELS 3 Zrotation Yrotation Xrotation
			JOINT Neck
			{
				OFFSET 22.500000 0.600000 0.000000
				CHANNELS 3 Zrotation Yrotation Xrotation
				JOINT Head
				{
					OFFSET 14.000000 0.030878 0.000000
					CHANNELS 3 Zrotation Yrotation Xrotation
					End Site
					{
						OFFSET 17.000000 0.000000 0.000000
					}
				}
			}
			JOINT LeftShoulder
			{
				OFFSET 19.800000 3.700000 4.300000
				CHANNELS 3 Zrotation Yrotation Xrotation
				JOINT LeftArm
				{
					OFFSET 8.000000 0.000000 0.000000
					CHANNELS 3 Zrotation Yrotation Xrotation
					JOINT LeftForeArm
					{
						OFFSET 15.200000 0.000000 0.000000
						CHANNELS 3 Zrotation Yrotation Xrotation
						JOINT LeftHand
						{
							OFFSET 17.800000 0.000000 0.000000
							CHANNELS 3 Zrotation Yrotation Xrotation
							End Site
							{
								OFFSET 7.200000 0.000000 0.000000
							}
						}
					}
				}
			}
			JOINT RightShoulder
			{
				OFFSET 19.800000 3.700000 -4.300000
				CHANNELS 3 Zrotation Yrotation Xrotation
				JOINT RightArm
				{
					OFFSET 8.000000 0.000000 0.151654
					CHANNELS 3 Zrotation Yrotation Xrotation
					JOINT RightForeArm
					{
						OFFSET 15.200000 0.000000 0.000000
						CHANNELS 3 Zrotation Yrotation Xrotation
						JOINT RightHand
						{
							OFFSET 17.800000 0.000000 0.000000
							CHANNELS 3 Zrotation Yrotation Xrotation
							End Site
							{
								OFFSET 7.200000 0.000000 0.000000
							}
						}
					}
				}
			}
		}
	}
	JOINT LeftUpLeg
	{
		OFFSET 5.984250 -7.666000 4.788790
		CHANNELS 3 Zrotation Yrotation Xrotation
		JOINT LeftLeg
		{
			OFFSET 16.000000 0.000000 0.000000
			CHANNELS 3 Zrotation Yrotation Xrotation
			JOINT LeftFoot
			{
				OFFSET 18.000000 0.000000 0.000000
				CHANNELS 3 Zrotation Yrotation Xrotation
				End Site
				{
					OFFSET 0.000000 -10.800000 0.000000
				}
			}
		}
	}
	JOINT RightUpLeg
	{
		OFFSET 5.984250 -7.665980 -4.788790
		CHANNELS 3 Zrotation Yrotation Xrotation
		JOINT RightLeg
		{
			OFFSET 16.000000 0.000000 0.000000
			CHANNELS 3 Zrotation Yrotation Xrotation
			JOINT RightFoot
			{
				OFFSET 18.000000 0.000000 0.000000
				CHANNELS 3 Zrotation Yrotation Xrotation
				End Site
				{
					OFFSET 0.000000 -10.800000 0.000000
				}
			}
		}
	}
	JOINT Tail
	{
		OFFSET 6.836960 -0.722574 0.000000
		CHANNELS 3 Zrotation Yrotation Xrotation
		JOINT Tail1
		{
			OFFSET 12.000000 0.000000 0.000000
			CHANNELS 3 Zrotation Yrotation Xrotation
			End Site
			{
				OFFSET 12.000000 0.000000 0.000000
			}
		}
	}
}
MOTION
Frames: 8
Frame Time: 0.033333
14718.602539 -5920.552734 36080.718750 -75.272362 20.759674 -89.770500 -147.178375 -7.051525 8.906195 -74.983170 6.896347 -26.142199 -3.885610 -13.043422 74.088448 37.817600 10.120860 -77.883995 27.079271 30.300722 -55.979454 80.846275 -48.475372 41.922115 -104.815948 -17.843618 -167.586502 -158.000092 -5.549004 -104.395248 63.013657 35.121796 -104.598831 104.175865 -77.932526 72.940758 89.327774 4.149947 -90.792549 -0.127189 -60.190781 -2.655616 -146.601730 -26.837683 8.754469 119.938828 8.548209 104.118057 149.825058 -23.629993 -54.231884 -148.309677 40.935204 53.949203 -154.643967 13.697751 47.385960 -27.649647 -53.842495 2.516981 -10.108111 -63.345753 -131.987473 -7.387841 20.219837 -74.907700 
30281.695312 33792.335938 62939.765625 -89.097359 24.489178 -70.950073 -144.571594 -5.636533 9.471184 -78.932114 2.382949 -21.941896 0.974630 -16.977987 72.747101 39.228462 10.912553 -77.101280 35.020340 18.236614 -51.682022 98.168694 -34.195560 42.106857 -96.401848 -22.069019 -171.113068 -162.344101 -11.375417 -102.585289 61.272926 24.327230 -99.024284 72.191017 -77.591385 111.925583 76.305534 26.465017 -91.884666 -3.742933 -73.559845 4.233410 -146.680923 -27.822092 13.074576 109.966515 10.486385 100.402054 148.668259 -23.844130 -55.285210 -153.122696 44.200142 58.369156 -136.135834 8.058568 74.342873 -25.746410 -50.846714 -0.471899 -23.089352 -36.802986 -115.500114 1.357653 23.014418 -86.548904 
45197.015625 36825.773438 78898.382812 -89.397476 38.512856 -53.080952 -141.574371 -4.337993 10.053645 -82.642319 -5.542886 -14.679008 5.635899 -21.117628 72.405182 40.604221 11.458526 -75.949844 39.324554 4.286828 -49.762985 110.614594 -33.149387 40.005646 -86.597771 -22.345886 -169.927124 -171.704758 -23.486027 -99.842201 58.173195 13.353169 -93.561272 54.551144 -75.488159 135.316101 65.415291 41.379459 -100.405266 57.463226 -64.746429 -37.101017 -143.086456 -30.259119 16.518831 102.164551 10.908895 97.587105 143.986969 -27.325638 -55.191544 -154.851288 42.278233 63.293453 -129.481384 4.957774 94.658409 -28.637056 -43.508392 -1.426520 -30.409475 -6.321865 -106.678909 9.912885 24.015636 -91.683144 
53957.843750 -1876.210938 106405.765625 -87.351509 48.245487 -42.857777 -138.372437 -3.056027 10.665077 -86.821800 -15.657668 -4.933534 8.591658 -25.060848 73.121429 41.617851 11.943297 -74.802208 39.931091 -7.851817 -47.364079 118.808563 -40.499794 33.767521 -71.977417 -19.088808 -161.973740 159.232086 -46.687027 -79.153053 56.549915 4.379284 -86.569305 51.344082 -75.583954 144.065262 54.575680 48.441238 -111.788811 82.485291 -25.815340 -26.455555 -135.293274 -34.826351 18.484407 98.957855 9.850668 95.553436 137.642532 -32.395321 -53.167156 -154.904221 36.613853 69.228104 -135.376205 14.321184 110.632751 -24.478546 -34.602520 -5.401939 -35.645008 24.529247 -102.588974 18.420982 21.974091 -94.644676 
58638.628906 -28118.898438 138110.437500 -85.699821 55.457592 -34.238640 -135.145004 -1.946845 11.134797 -92.016106 -25.862782 6.302649 9.277505 -28.161188 74.378387 42.157562 11.812441 -73.983475 36.589275 -16.484190 -43.304619 123.354263 -50.448341 26.275780 -53.129421 -15.336289 -146.749466 74.893166 -34.501537 -0.382465 57.642448 -1.407550 -79.953011 63.863575 -77.905464 136.625656 49.806042 49.633198 -118.344795 104.221657 23.469484 14.681096 -125.260811 -39.919033 18.355795 102.437569 6.185046 96.130348 134.038147 -36.030132 -50.845547 -155.761902 28.913853 72.332893 -146.808517 36.150005 123.600517 -3.984387 -25.558111 -12.554630 -42.415321 50.027504 -104.936363 25.904091 18.217527 -96.890091 
52382.449219 -4833.050781 149117.500000 -88.556038 62.365860 -29.749916 -132.276352 -1.147393 11.179379 -98.362083 -34.375423 18.042095 7.918465 -29.812115 75.998100 42.423386 11.403561 -73.082039 28.617867 -21.831926 -37.102329 123.185204 -60.953262 21.291416 -36.272995 -13.163486 -126.473366 53.072189 16.511316 23.306599 61.251987 -4.864781 -75.586609 101.073318 -78.839653 103.572281 53.546795 46.895229 -117.092140 149.094299 44.755917 80.171341 -117.431587 -43.294750 17.390850 110.606857 0.605163 98.119400 137.584641 -36.490818 -52.502800 -154.139206 21.795835 74.442757 -158.163971 62.246296 133.510757 32.654339 -15.232330 -18.345793 -58.011593 66.755302 -119.836044 31.463177 14.125440 -98.239365 
44063.761719 2489.994629 153970.953125 -96.394218 69.767105 -30.514053 -130.216324 -0.777373 10.655265 -105.609474 -40.262470 29.062218 5.513140 -29.732109 77.585808 42.682110 11.273564 -72.047913 17.644182 -25.608694 -29.886742 117.276474 -71.772522 19.948196 -32.019264 -13.736196 -106.963127 56.748749 35.251286 30.765093 65.043274 -7.270448 -75.057533 137.077621 -71.883583 69.777931 65.707611 39.729851 -109.298401 178.952927 34.134197 117.609550 -116.645332 -44.832954 18.724194 119.482132 -6.082404 99.052505 147.952393 -32.323109 -57.466141 -148.941849 14.556486 74.634422 -174.310699 81.529907 130.593460 69.214821 -7.417150 -18.584761 -94.090042 74.238747 -157.531311 34.944672 10.534270 -99.178841 
28086.156250 851.805176 152914.234375 -106.435120 78.279961 -37.076572 -128.759018 -1.000777 9.721898 -112.757355 -43.709091 38.022621 2.581664 -28.607979 78.897591 42.944172 11.158009 -70.839622 6.604097 -27.867273 -22.666954 103.005318 -81.118065 25.674658 -48.271889 -8.737896 -90.457169 60.898327 30.280275 28.504484 64.804260 -10.094100 -81.523827 148.531235 -57.612587 56.699841 88.296410 22.547016 -102.947784 -169.501602 19.214790 115.376656 -121.361168 -44.924980 20.659861 127.408676 -14.100149 98.200722 158.552200 -26.898888 -62.762653 -140.773804 6.813035 70.052650 81.431793 84.733139 31.230284 90.574768 -5.730081 -17.292614 -126.569725 71.612640 167.528549 35.947910 8.640347 -98.751770 
